<?xml version="1.0" standalone="no"?>
<!DOCTYPE svg PUBLIC "-//W3C//DTD SVG 20010904//EN"
 "http://www.w3.org/TR/2001/REC-SVG-20010904/DTD/svg10.dtd">
<svg version="1.0" xmlns="http://www.w3.org/2000/svg"
 width="640.000000pt" height="640.000000pt" viewBox="0 0 640.000000 640.000000"
 preserveAspectRatio="xMidYMid meet">

<g transform="translate(0.000000,640.000000) scale(0.100000,-0.100000)"
fill="#000000" stroke="none">
<path d="M0 3200 l0 -3200 1443 0 c794 0 1448 4 1456 9 9 6 11 14 4 26 -11 18
-6 62 8 70 4 3 5 27 2 53 -7 62 14 103 68 138 56 35 142 121 129 129 -6 4 -17
2 -24 -4 -19 -16 -43 -4 -52 27 -4 15 -8 68 -8 117 -2 74 -6 96 -22 120 -12
17 -33 62 -48 100 -15 39 -38 96 -50 128 l-23 58 -180 122 c-283 192 -543 370
-738 506 -99 69 -214 148 -255 176 -41 29 -104 72 -140 97 -72 49 -622 424
-825 562 -178 121 -323 220 -430 295 -49 35 -126 87 -170 117 -44 29 -93 64
-110 77 l-29 25 66 43 c36 24 117 80 179 123 63 44 256 176 429 294 297 203
395 271 481 331 65 46 1092 752 1452 998 448 306 624 425 648 438 25 14 35 8
360 -211 372 -251 485 -327 704 -479 83 -57 227 -156 320 -220 94 -64 204
-140 245 -169 41 -29 163 -113 270 -186 107 -74 249 -171 315 -217 66 -45 165
-113 220 -150 55 -37 102 -70 105 -73 3 -4 91 -64 195 -135 105 -71 238 -162
298 -202 l107 -75 0 1671 0 1671 -3200 0 -3200 0 0 -3200z m2988 2572 c2 -7
-6 -12 -17 -12 -21 0 -27 11 -14 24 9 9 26 2 31 -12z m-1606 -5057 c0 -5 -5
-11 -11 -13 -6 -2 -11 4 -11 13 0 9 5 15 11 13 6 -2 11 -8 11 -13z m-52 -130
c0 -8 -4 -15 -9 -15 -13 0 -22 16 -14 24 11 11 23 6 23 -9z m-472 -347 c-6
-18 -28 -21 -28 -4 0 9 7 16 16 16 9 0 14 -5 12 -12z"/>
<path d="M3104 4484 c-268 -39 -520 -165 -746 -373 -43 -38 -45 -47 -21 -73
11 -13 12 -18 3 -18 -7 0 -18 7 -25 16 -10 14 -18 9 -63 -42 -29 -32 -52 -64
-52 -71 0 -7 -4 -13 -10 -13 -21 0 -187 -281 -176 -298 3 -5 31 -5 63 -1 32 4
140 11 240 15 100 4 187 11 194 15 7 4 14 30 16 58 2 44 0 49 -15 44 -15 -6
-15 -4 2 15 22 25 66 30 66 7 0 -8 -6 -15 -14 -15 -17 0 -25 -23 -23 -60 1
-15 8 -25 17 -25 8 0 14 7 12 14 -3 14 5 36 30 84 6 12 5 23 -2 32 -13 16 -4
39 11 30 12 -8 12 -61 0 -83 -6 -11 -4 -36 4 -67 l12 -50 59 -6 c159 -18 194
-18 194 -3 0 8 7 14 16 14 10 0 14 -6 11 -14 -7 -16 0 -19 87 -36 47 -10 60
-9 67 1 4 7 4 18 -1 25 -6 6 -7 14 -3 17 14 15 -21 39 -49 33 -15 -3 -28 -1
-28 4 0 6 -17 27 -38 48 -22 22 -42 53 -45 71 -5 22 -17 37 -38 49 -17 9 -58
36 -90 60 -33 23 -64 42 -70 42 -28 0 -46 20 -41 46 5 26 5 26 16 6 11 -20
181 -140 219 -155 9 -3 17 -13 17 -22 0 -21 28 -76 49 -95 9 -9 34 -21 56 -29
38 -12 95 -52 95 -67 0 -3 -7 -1 -15 6 -12 10 -15 9 -15 -8 0 -11 3 -27 6 -36
8 -21 70 -32 89 -16 12 10 15 10 15 -2 0 -10 18 -20 48 -28 87 -23 176 -53
297 -97 66 -25 131 -47 145 -50 24 -4 24 -4 5 10 -16 13 -17 17 -6 31 10 12
17 14 27 5 11 -9 14 -8 14 5 0 19 21 21 38 4 9 -9 14 -4 23 21 l12 33 13 -32
c11 -25 19 -31 34 -27 24 6 26 -5 5 -23 -8 -7 -15 -24 -15 -37 0 -21 -2 -23
-15 -13 -15 13 -45 7 -45 -8 0 -5 60 -39 133 -76 72 -38 157 -83 187 -101 43
-26 58 -31 69 -22 11 10 13 8 8 -8 -5 -17 9 -30 81 -77 108 -70 269 -200 387
-311 50 -47 93 -82 97 -78 30 27 58 359 41 471 l-8 55 -45 6 -45 6 43 1 c39 2
42 4 42 30 0 35 -43 202 -70 276 -33 87 -116 251 -162 320 -36 54 -79 108
-168 210 -43 49 -206 180 -254 204 -25 13 -48 28 -52 33 -7 13 -141 79 -227
113 -67 26 -70 27 -115 12 -46 -15 -47 -15 -24 3 12 11 22 22 22 24 0 18 -288
61 -305 46 -5 -6 -2 -9 8 -9 9 0 17 -4 17 -10 0 -16 -15 -12 -44 11 -30 24
-83 23 -77 -1 12 -49 10 -51 -10 -17 -22 35 -25 37 -70 35 -25 -2 -82 -8 -125
-14z m236 -92 c0 -15 -2 -15 -10 -2 -13 20 -13 33 0 25 6 -3 10 -14 10 -23z
m251 2 c8 -10 21 -13 38 -9 l26 6 -22 -16 c-20 -14 -24 -14 -49 10 -15 14 -22
25 -17 25 6 0 16 -7 24 -16z m169 -14 c0 -5 -5 -10 -11 -10 -5 0 -7 5 -4 10 3
6 8 10 11 10 2 0 4 -4 4 -10z m-175 -122 c-22 -72 -46 -130 -61 -148 -6 -8
-14 -23 -15 -32 -3 -14 -6 -13 -16 7 -6 14 -7 23 -3 20 15 -9 46 48 76 136 31
92 47 106 19 17z m-315 -88 c0 -5 -4 -10 -10 -10 -5 0 -10 5 -10 10 0 6 5 10
10 10 6 0 10 -4 10 -10z m-614 -135 c9 -39 0 -30 -15 15 -6 19 -7 30 -2 25 5
-6 13 -23 17 -40z m1294 -20 c0 -27 -12 -32 -29 -12 -8 10 -7 17 1 25 19 19
28 14 28 -13z m-434 -12 c20 -27 16 -38 -6 -18 -20 18 -26 35 -14 35 4 0 13
-8 20 -17z m-166 -20 c0 -19 -3 -24 -10 -17 -6 6 -8 18 -4 27 9 24 14 21 14
-10z m-180 -31 c0 -15 -2 -15 -10 -2 -13 20 -13 33 0 25 6 -3 10 -14 10 -23z
m-670 4 c0 -2 -7 -7 -16 -10 -8 -3 -12 -2 -9 4 6 10 25 14 25 6z m1100 -48 c0
-12 -6 -9 -26 13 -19 22 -19 22 4 8 12 -8 22 -17 22 -21z m-730 2 c0 -5 -2
-10 -4 -10 -3 0 -8 5 -11 10 -3 6 -1 10 4 10 6 0 11 -4 11 -10z m89 -4 c9 -10
7 -17 -6 -27 -12 -10 -15 -11 -9 -1 4 7 2 19 -4 27 -7 9 -8 15 -2 15 5 0 15
-6 21 -14z m-539 -16 c0 -5 -7 -10 -16 -10 -8 0 -12 5 -9 10 3 6 10 10 16 10
5 0 9 -4 9 -10z m1625 -10 c-3 -5 -11 -10 -16 -10 -6 0 -7 5 -4 10 3 6 11 10
16 10 6 0 7 -4 4 -10z m-425 -25 c0 -8 -2 -15 -4 -15 -2 0 -6 7 -10 15 -3 8
-1 15 4 15 6 0 10 -7 10 -15z m20 -83 c0 -18 7 -46 15 -62 9 -17 11 -30 6 -30
-13 0 -28 47 -35 105 -4 34 -3 45 4 35 5 -8 10 -30 10 -48z m-1130 7 c0 -6 -4
-7 -10 -4 -5 3 -10 11 -10 16 0 6 5 7 10 4 6 -3 10 -11 10 -16z m1641 -14 c5
4 9 2 9 -4 0 -15 -14 -21 -28 -12 -8 5 -10 15 -5 27 7 17 8 17 11 1 2 -9 8
-15 13 -12z m-371 5 c0 -13 -11 -13 -30 0 -12 8 -11 10 8 10 12 0 22 -4 22
-10z m306 -35 c18 -51 17 -60 -1 -45 -8 7 -15 21 -15 31 0 11 -7 19 -15 19 -9
0 -15 9 -15 21 0 35 31 18 46 -26z m-1985 -21 c-11 -14 -17 -33 -14 -47 4 -20
4 -20 -9 3 -8 14 -10 27 -5 29 4 2 12 14 18 28 5 13 14 21 19 18 6 -4 3 -16
-9 -31z m1019 26 c0 -5 -4 -10 -10 -10 -5 0 -10 5 -10 10 0 6 5 10 10 10 6 0
10 -4 10 -10z m735 -18 c-8 -8 -25 10 -19 20 4 6 9 5 15 -3 4 -7 6 -15 4 -17z
m-1450 8 c3 -5 1 -10 -4 -10 -6 0 -11 5 -11 10 0 6 2 10 4 10 3 0 8 -4 11 -10z
m1387 -15 c-3 -17 -10 -25 -20 -23 -21 4 -28 28 -8 28 9 0 16 5 16 10 0 6 4
10 9 10 4 0 6 -11 3 -25z m-1142 1 c0 -11 -19 -15 -25 -6 -3 5 1 10 9 10 9 0
16 -2 16 -4z m1200 -48 c0 -15 -18 -8 -25 10 -16 35 -13 46 5 22 11 -14 20
-28 20 -32z m210 26 c0 -8 -4 -12 -10 -9 -5 3 -10 10 -10 16 0 5 5 9 10 9 6 0
10 -7 10 -16z m-476 -9 c-4 -8 -11 -15 -16 -15 -6 0 -5 6 2 15 7 8 14 15 16
15 2 0 1 -7 -2 -15z m661 5 c-3 -5 -11 -10 -16 -10 -6 0 -7 5 -4 10 3 6 11 10
16 10 6 0 7 -4 4 -10z m-480 -31 c5 -6 5 -9 -3 -9 -8 0 -9 -7 -2 -26 6 -14 10
-27 10 -29 0 -6 -87 -15 -101 -10 -8 3 -15 21 -17 41 -2 32 0 35 13 24 12 -10
15 -10 15 3 0 8 6 18 13 21 15 6 59 -2 72 -15z m-1345 7 c0 -2 -8 -10 -17 -17
-16 -13 -17 -12 -4 4 13 16 21 21 21 13z m1760 -10 c0 -24 -17 -28 -23 -6 -3
13 0 20 9 20 8 0 14 -6 14 -14z m-57 -13 c-7 -2 -13 -11 -13 -20 0 -9 -8 -13
-22 -11 -30 4 -34 26 -6 31 33 6 56 7 41 0z m-1173 -13 c0 -5 -4 -10 -10 -10
-5 0 -10 5 -10 10 0 6 5 10 10 10 6 0 10 -4 10 -10z m917 -13 c-3 -9 -17 -12
-42 -9 -25 3 -33 7 -24 13 8 4 24 6 36 2 15 -3 23 -1 23 8 0 7 3 10 6 6 4 -3
4 -12 1 -20z m-237 -42 c0 -8 -4 -15 -10 -15 -5 0 -10 7 -10 15 0 8 5 15 10
15 6 0 10 -7 10 -15z m270 -101 c0 -12 -21 2 -67 44 -73 67 -67 75 7 11 33
-29 60 -54 60 -55z m270 92 c0 -3 -4 -8 -10 -11 -5 -3 -10 -1 -10 4 0 6 5 11
10 11 6 0 10 -2 10 -4z m-510 -16 c0 -5 -5 -10 -11 -10 -5 0 -7 5 -4 10 3 6 8
10 11 10 2 0 4 -4 4 -10z m28 -51 c2 -23 2 -23 -13 -5 -18 24 -20 39 -2 34 6
-3 13 -15 15 -29z m407 -49 c3 -5 1 -10 -4 -10 -6 0 -11 5 -11 10 0 6 2 10 4
10 3 0 8 -4 11 -10z m-80 -20 c3 -5 2 -10 -4 -10 -5 0 -13 5 -16 10 -3 6 -2
10 4 10 5 0 13 -4 16 -10z m-61 -16 c8 -21 8 -24 -3 -24 -5 0 -11 9 -14 20 -6
24 8 27 17 4z m226 2 c0 -3 -4 -8 -10 -11 -5 -3 -10 -1 -10 4 0 6 5 11 10 11
6 0 10 -2 10 -4z m-25 -76 c3 -5 1 -10 -4 -10 -6 0 -11 5 -11 10 0 6 2 10 4
10 3 0 8 -4 11 -10z m-25 -35 c-7 -8 -10 -21 -7 -29 8 -21 -29 -60 -49 -52
-13 5 -14 9 -4 21 7 9 10 18 7 22 -4 3 -2 12 4 20 9 9 8 13 0 13 -6 0 -11 5
-11 10 0 6 16 10 36 10 31 0 35 -2 24 -15z m-200 -11 c0 -8 -4 -12 -10 -9 -5
3 -10 10 -10 16 0 5 5 9 10 9 6 0 10 -7 10 -16z m259 7 c10 -6 10 -10 1 -16
-7 -4 -19 0 -28 9 -14 13 -14 16 -2 16 8 0 21 -4 29 -9z m-142 -7 c-3 -3 -12
-4 -19 -1 -8 3 -5 6 6 6 11 1 17 -2 13 -5z m207 -35 c14 -7 27 -18 31 -26 4
-11 -3 -10 -29 5 -23 14 -37 17 -44 10 -6 -6 -18 -7 -29 -3 -15 7 -13 9 12 15
17 4 31 8 32 9 1 0 13 -4 27 -10z m-103 -49 c5 0 9 -7 9 -15 0 -19 -34 -20
-49 -2 -13 16 -3 30 17 22 7 -3 18 -5 23 -5z m184 -10 c3 -5 2 -10 -4 -10 -5
0 -13 5 -16 10 -3 6 -2 10 4 10 5 0 13 -4 16 -10z m255 0 c0 -5 -4 -10 -10
-10 -5 0 -10 5 -10 10 0 6 5 10 10 10 6 0 10 -4 10 -10z m-37 -65 c-3 -9 -8
-14 -10 -11 -3 3 -2 9 2 15 9 16 15 13 8 -4z"/>
<path d="M3690 3630 c-12 -7 -10 -11 10 -18 31 -12 45 -5 29 14 -13 16 -19 17
-39 4z"/>
<path d="M2565 3640 c-4 -6 3 -10 14 -10 25 0 27 6 6 13 -8 4 -17 2 -20 -3z"/>
<path d="M2278 3583 c-15 -4 -18 -16 -18 -74 0 -48 3 -68 11 -63 6 3 9 15 6
25 -8 30 28 44 52 20 10 -10 21 -25 23 -32 3 -8 8 -11 12 -7 4 3 2 16 -4 28
-9 17 -9 29 -1 46 21 47 -17 74 -81 57z m59 -24 c20 -20 3 -39 -33 -39 -26 0
-34 4 -34 18 0 10 3 22 7 25 10 11 48 8 60 -4z"/>
<path d="M2106 3567 c-42 -32 -36 -105 11 -126 39 -18 73 8 73 57 0 45 -8 58
-42 71 -18 7 -30 6 -42 -2z m46 -19 c16 -12 22 -34 19 -70 -1 -22 -38 -33 -56
-18 -18 15 -20 71 -3 88 15 15 20 15 40 0z"/>
<path d="M2435 3525 c-10 -76 -3 -89 41 -82 47 8 62 22 70 63 9 47 -16 74 -67
74 l-38 0 -6 -55z m77 28 c36 -32 11 -98 -36 -91 -17 2 -22 11 -24 42 -2 21
-1 44 2 52 7 19 35 18 58 -3z"/>
<path d="M2617 3558 c-3 -13 -9 -44 -12 -69 l-7 -46 39 -6 c52 -9 63 -9 63 3
0 6 -13 10 -29 10 -31 0 -57 22 -46 40 3 5 23 10 43 11 l37 1 -37 10 c-28 7
-38 15 -38 30 0 18 5 20 40 15 48 -6 63 8 19 17 -53 10 -67 7 -72 -16z"/>
<path d="M2784 3495 c-6 -36 -6 -65 -2 -65 4 0 8 13 8 29 0 60 29 81 31 23 0
-15 4 -35 8 -45 6 -17 8 -16 19 7 9 20 9 25 -1 23 -6 -1 -13 9 -15 23 -11 94
-35 96 -48 5z"/>
<path d="M2888 3538 c-9 -7 -19 -24 -23 -38 -7 -23 -7 -23 9 -7 22 22 29 22
22 0 -14 -52 -17 -85 -8 -79 11 7 27 106 20 126 -2 7 -8 7 -20 -2z"/>
<path d="M3106 3502 c-2 -4 -7 -27 -11 -51 -7 -42 -7 -43 12 -25 11 11 16 21
12 24 -18 13 10 32 40 28 38 -6 41 9 4 18 -16 3 -33 7 -40 9 -7 2 -14 1 -17
-3z"/>
<path d="M3145 3430 c3 -5 10 -10 16 -10 5 0 9 5 9 10 0 6 -7 10 -16 10 -8 0
-12 -4 -9 -10z"/>
<path d="M3365 3375 c-10 -30 -15 -58 -11 -62 4 -4 9 3 13 15 5 21 10 22 49
16 40 -6 45 -4 53 17 11 31 6 44 -25 58 -47 21 -59 14 -79 -44z m85 20 c10
-12 10 -18 0 -30 -15 -18 -31 -19 -54 -2 -23 17 -11 47 19 47 12 0 28 -7 35
-15z"/>
<path d="M2270 3403 c-30 -2 -102 -8 -160 -14 -58 -6 -116 -12 -130 -14 -14
-1 -33 -3 -42 -3 -39 -4 -78 -348 -59 -525 10 -100 21 -127 49 -127 13 0 12
-3 -5 -15 -20 -14 -20 -18 -9 -67 8 -40 16 -54 31 -56 30 -6 43 -22 17 -22
-27 0 -29 -23 -6 -69 12 -24 19 -29 29 -21 18 15 42 2 48 -25 2 -14 1 -22 -3
-20 -4 3 -15 -3 -23 -13 -15 -16 -14 -22 9 -72 33 -71 83 -150 96 -150 6 0 7
13 2 33 -4 17 -6 54 -5 80 1 35 -9 73 -35 138 -31 77 -35 94 -25 115 15 34 14
37 -9 31 -11 -3 -20 -1 -20 4 0 5 6 10 13 11 6 0 17 2 22 2 23 4 65 40 65 57
0 10 5 21 10 24 17 10 11 25 -7 18 -13 -4 -12 -1 3 10 17 13 29 14 55 7 22 -6
37 -6 43 0 16 16 51 12 68 -7 20 -23 23 -93 4 -93 -15 0 -11 -36 5 -46 13 -7
80 39 75 53 -3 7 4 6 22 -3 15 -8 34 -14 44 -14 12 0 16 -9 16 -35 0 -37 -23
-50 -31 -17 -3 11 -7 7 -12 -16 -4 -18 -12 -35 -18 -39 -6 -4 -8 0 -5 9 4 8 2
21 -3 29 -7 11 -16 5 -43 -26 -27 -31 -33 -46 -29 -67 7 -34 -13 -38 -28 -5
-6 15 -7 1 -2 -48 4 -38 6 -100 5 -137 -1 -53 3 -75 19 -103 28 -46 33 -40 12
13 -16 42 -14 60 7 47 6 -3 26 -38 46 -77 27 -54 35 -82 35 -124 l0 -54 47
-20 c49 -22 134 -104 190 -183 32 -47 32 -47 52 -27 23 23 50 20 110 -10 33
-16 35 -20 38 -71 4 -91 6 -96 57 -102 70 -10 119 -39 144 -85 12 -22 41 -31
41 -11 0 6 -7 17 -15 25 -15 15 -31 61 -24 69 2 2 97 6 212 9 l207 6 0 -50 c0
-27 -4 -52 -10 -55 -5 -3 -10 -15 -10 -25 0 -14 11 -22 40 -30 61 -17 82 9 39
49 -49 45 11 97 126 110 38 5 52 11 59 27 7 17 22 23 59 28 27 3 57 12 67 21
9 8 20 15 24 15 4 0 25 18 47 40 54 53 173 86 207 57 22 -18 56 27 41 55 -9
16 -7 24 10 39 12 11 21 26 21 34 0 20 48 73 81 90 18 10 26 20 23 30 -4 10 0
15 12 15 27 0 84 123 114 246 5 22 23 58 39 79 l29 39 -19 32 c-10 19 -14 36
-9 39 5 3 11 1 15 -5 3 -5 15 -10 25 -10 10 0 20 -5 22 -11 3 -8 10 -8 26 2
18 12 26 11 49 -2 16 -9 34 -14 40 -12 7 3 16 -2 19 -11 7 -18 34 -22 34 -6 0
15 -118 133 -215 216 -44 38 -93 81 -110 97 -27 26 -185 146 -226 172 -9 6
-38 26 -64 46 -27 20 -79 53 -116 73 l-68 37 -16 -28 -15 -28 2 35 c3 34 1 36
-67 71 -39 20 -84 41 -100 47 -17 6 -57 22 -89 36 -33 14 -63 23 -68 20 -5 -3
-15 1 -21 9 -15 19 -75 39 -82 27 -3 -5 4 -11 15 -15 11 -3 20 -10 20 -14 0
-13 98 -62 104 -52 7 11 75 -29 76 -44 0 -5 15 -27 33 -48 24 -29 40 -38 65
-39 34 -1 42 -12 16 -22 -9 -3 -14 -12 -11 -19 4 -10 -3 -12 -25 -9 -18 3 -27
9 -24 17 6 16 -80 125 -99 125 -8 0 -15 3 -15 8 0 4 -27 15 -60 26 -33 10 -60
24 -60 31 0 11 -20 25 -36 25 -7 0 1 -25 10 -31 9 -7 0 -29 -12 -29 -4 0 -8
21 -10 48 -2 29 -9 52 -19 59 -16 13 -230 83 -251 83 -7 0 -12 -9 -12 -20 0
-12 -7 -20 -16 -20 -14 0 -14 3 -4 15 21 25 1 34 -115 55 -106 20 -199 26
-163 12 22 -9 10 -26 -19 -29 -18 -2 -23 2 -23 21 0 16 -7 26 -22 30 -37 9
-66 7 -71 -6 -3 -9 -9 -8 -18 5 -12 14 -37 18 -152 24 -128 6 -139 5 -151 -13
-14 -18 -15 -18 -33 -1 -11 9 -21 16 -24 15 -2 -1 -29 -3 -59 -5z m487 -65
c-3 -8 -6 -5 -6 6 -1 11 2 17 5 13 3 -3 4 -12 1 -19z m81 -39 c-2 -6 -8 -10
-13 -10 -5 0 -11 4 -13 10 -2 6 4 11 13 11 9 0 15 -5 13 -11z m-688 -14 c0 -9
9 -15 25 -15 27 0 34 -15 10 -24 -8 -3 -15 -14 -15 -24 0 -14 -8 -18 -35 -18
-24 0 -34 4 -31 12 3 7 -2 18 -10 24 -20 17 -17 30 6 30 11 0 23 7 26 15 4 8
10 15 15 15 5 0 9 -7 9 -15z m950 -5 c0 -11 -3 -20 -7 -21 -61 -7 -59 -8 -43
22 14 26 50 25 50 -1z m235 -30 c3 -5 -1 -10 -9 -10 -9 0 -16 5 -16 10 0 6 4
10 9 10 6 0 13 -4 16 -10z m-620 -64 c-4 -20 -2 -36 4 -41 6 -3 8 -11 5 -17
-11 -17 -24 13 -24 55 0 20 5 37 10 37 7 0 8 -13 5 -34z m-55 -15 c0 -12 -28
-22 -34 -12 -3 5 -3 11 1 15 9 9 33 7 33 -3z m570 -62 c0 -5 -7 -9 -15 -9 -15
0 -20 12 -9 23 8 8 24 -1 24 -14z m200 -9 c0 -5 -16 -10 -36 -10 -21 0 -33 4
-29 10 3 6 19 10 36 10 16 0 29 -4 29 -10z m-294 -37 c-10 -10 -19 5 -10 18 6
11 8 11 12 0 2 -7 1 -15 -2 -18z m200 15 c-3 -7 -9 -21 -12 -30 -4 -10 -11
-18 -16 -18 -6 0 -8 7 -5 14 4 10 1 13 -9 9 -17 -6 -18 3 -1 22 15 18 51 20
43 3z m-881 -8 c19 -8 19 -9 -2 -9 -12 -1 -25 4 -28 9 -7 12 2 12 30 0z m269
1 c3 -5 -3 -20 -14 -34 -17 -22 -26 -25 -58 -20 -20 3 -46 10 -57 14 -15 6
-11 8 20 10 22 1 45 3 50 4 6 2 16 3 23 4 6 0 12 8 12 16 0 16 16 20 24 6z
m501 -11 c3 -5 1 -10 -4 -10 -6 0 -11 5 -11 10 0 6 2 10 4 10 3 0 8 -4 11 -10z
m-660 -11 c5 -7 -5 -8 -32 -3 -51 9 -54 14 -10 14 20 0 39 -5 42 -11z m780
-19 c3 -5 1 -10 -4 -10 -6 0 -11 5 -11 10 0 6 2 10 4 10 3 0 8 -4 11 -10z
m255 0 c0 -5 -4 -10 -10 -10 -5 0 -10 5 -10 10 0 6 5 10 10 10 6 0 10 -4 10
-10z m-180 -10 c0 -5 -6 -10 -14 -10 -8 0 -18 5 -21 10 -3 6 3 10 14 10 12 0
21 -4 21 -10z m75 -9 c-8 -13 -45 -15 -45 -2 0 5 10 11 23 13 27 5 31 3 22
-11z m-155 -21 c0 -5 -2 -10 -4 -10 -3 0 -8 5 -11 10 -3 6 -1 10 4 10 6 0 11
-4 11 -10z m-599 -28 c-16 -5 -41 5 -41 17 0 7 10 6 26 -1 15 -7 21 -14 15
-16z m480 5 c-1 -12 -15 -9 -19 4 -3 6 1 10 8 8 6 -3 11 -8 11 -12z m149 -11
c0 -8 -51 -13 -56 -5 -3 5 9 9 25 9 17 0 31 -2 31 -4z m516 -55 c37 -40 28
-46 -11 -8 -26 26 -33 39 -28 53 7 19 8 19 11 0 2 -11 15 -31 28 -45z m-1466
39 c0 -5 -4 -10 -10 -10 -5 0 -10 5 -10 10 0 6 5 10 10 10 6 0 10 -4 10 -10z
m835 -9 c3 -5 1 -12 -4 -15 -5 -3 -11 1 -15 9 -6 16 9 21 19 6z m-450 -49 c-3
-8 -5 -18 -5 -23 0 -13 -40 -5 -50 10 -12 21 21 50 43 37 9 -6 15 -17 12 -24z
m340 -2 c-3 -5 -13 -10 -21 -10 -8 0 -12 5 -9 10 3 6 13 10 21 10 8 0 12 -4 9
-10z m741 -34 c36 1 42 -2 52 -28 5 -15 17 -28 26 -28 9 0 16 -4 16 -10 0 -17
-13 -11 -46 21 -27 26 -37 30 -63 24 -17 -4 -31 -11 -31 -16 0 -5 -9 -9 -19
-9 -11 0 -23 -5 -26 -10 -3 -6 -16 -8 -28 -4 -36 8 -248 -97 -272 -136 -6 -10
-63 -40 -77 -40 -21 0 -4 17 32 32 22 9 40 23 40 30 0 8 12 19 28 25 15 6 43
21 62 32 74 42 143 71 182 76 54 7 61 13 53 43 -6 25 -5 25 12 12 10 -9 36
-15 59 -14z m-944 -53 c24 -24 48 -29 64 -14 5 6 19 4 34 -4 24 -13 23 -14
-20 -13 -67 1 -99 17 -121 63 l-20 40 20 -25 c12 -14 31 -35 43 -47z m-897 47
c3 -5 -1 -10 -9 -10 -9 0 -16 5 -16 10 0 6 4 10 9 10 6 0 13 -4 16 -10z m1805
-75 c0 -8 -4 -17 -10 -20 -6 -4 -10 5 -10 20 0 15 4 24 10 20 6 -3 10 -12 10
-20z m-1710 -5 c0 -5 -4 -10 -10 -10 -5 0 -10 5 -10 10 0 6 5 10 10 10 6 0 10
-4 10 -10z m168 -18 c8 -12 10 -22 4 -22 -5 0 -17 12 -27 26 -11 17 -13 25 -4
22 7 -2 19 -14 27 -26z m917 -66 c28 -13 59 -26 69 -30 10 -4 16 -9 13 -12
-10 -10 -109 32 -167 70 -30 20 -58 36 -62 36 -5 0 -8 4 -8 9 0 5 24 -4 53
-20 28 -16 75 -40 102 -53z m-15 80 c0 -3 -4 -8 -10 -11 -5 -3 -10 -1 -10 4 0
6 5 11 10 11 6 0 10 -2 10 -4z m148 -12 c11 -9 17 -25 15 -38 -6 -29 -48 -27
-69 3 -15 21 -15 23 5 28 12 3 21 9 21 14 0 13 7 11 28 -7z m606 -39 c-4 -8
-8 -15 -10 -15 -2 0 -4 7 -4 15 0 8 4 15 10 15 5 0 7 -7 4 -15z m-1534 -3 c0
-13 -12 -22 -22 -16 -10 6 -1 24 13 24 5 0 9 -4 9 -8z m855 -2 c3 -5 1 -10 -4
-10 -6 0 -11 5 -11 10 0 6 2 10 4 10 3 0 8 -4 11 -10z m719 -14 c-6 -16 -24
-23 -24 -8 0 10 22 33 27 28 2 -2 1 -11 -3 -20z m-564 -6 c0 -5 -4 -10 -9 -10
-6 0 -13 5 -16 10 -3 6 1 10 9 10 9 0 16 -4 16 -10z m-447 -41 c-7 -7 -16 -5
-27 7 -13 13 -14 19 -5 25 17 10 45 -19 32 -32z m230 -50 c-3 -11 -8 -17 -11
-14 -3 2 -11 0 -17 -5 -18 -15 -30 36 -13 54 11 12 15 12 29 -1 10 -8 15 -23
12 -34z m177 24 c0 -14 -16 -33 -27 -33 -8 0 -35 -14 -59 -32 -33 -23 -43 -36
-38 -50 3 -12 0 -18 -9 -18 -9 0 -17 6 -19 12 -3 9 -20 5 -59 -15 -30 -15 -59
-27 -65 -27 -17 0 -38 -37 -59 -100 -9 -30 -24 -66 -33 -79 -11 -18 -12 -26
-4 -29 22 -7 13 -30 -8 -25 -33 9 -49 -23 -50 -100 0 -70 26 -197 41 -197 4 0
19 5 32 11 35 16 63 -2 71 -46 9 -44 30 -36 23 9 -5 35 10 76 28 76 7 0 23 -9
37 -19 29 -23 118 -28 118 -6 0 21 28 26 42 7 7 -9 27 -25 43 -34 17 -10 29
-23 27 -29 -1 -6 3 -9 10 -6 7 2 21 -3 31 -11 16 -14 19 -14 31 4 16 20 18 18
29 -33 4 -17 1 -23 -13 -23 -10 0 -20 5 -22 11 -3 8 -14 7 -36 -5 -25 -13 -67
-17 -218 -18 -165 -1 -187 0 -196 15 -12 22 -28 22 -29 0 0 -15 -2 -14 -9 3
-7 18 -15 21 -49 18 -49 -3 -62 -10 -54 -29 7 -19 -4 -19 -24 1 -11 11 -19 12
-26 5 -6 -6 -24 -11 -39 -11 -32 0 -38 -15 -9 -23 23 -6 49 -47 29 -47 -30 1
-103 29 -101 39 2 6 -4 11 -12 11 -9 0 -12 -6 -9 -15 12 -31 -31 -15 -45 17
-19 43 -91 118 -113 118 -19 0 -25 26 -7 32 7 2 8 17 4 41 -6 31 -12 38 -42
46 -19 5 -41 7 -49 4 -10 -3 -14 2 -14 18 0 28 16 56 26 46 4 -3 2 -13 -4 -20
-16 -19 -5 -27 35 -27 39 0 41 8 12 44 l-21 27 28 -7 c16 -4 39 -11 52 -15 13
-5 25 -9 26 -9 2 0 2 14 0 32 -2 17 2 39 9 47 8 9 17 24 20 34 4 9 13 17 22
17 20 0 19 26 -1 34 -15 6 -15 8 -1 24 16 18 17 20 17 52 0 11 4 20 9 20 13 0
25 -40 22 -70 -2 -20 0 -23 10 -12 18 17 48 15 55 -3 4 -9 19 -15 36 -15 29 0
30 2 24 31 -5 27 -4 30 9 19 9 -7 13 -21 10 -31 -5 -14 -1 -19 14 -19 12 0 21
-6 21 -14 0 -8 3 -23 7 -33 5 -14 4 -16 -8 -7 -8 6 -24 14 -37 17 -20 5 -22 3
-10 -11 7 -9 8 -13 2 -9 -7 4 -20 -1 -31 -11 -10 -9 -14 -14 -7 -9 18 11 44
-3 44 -24 0 -10 6 -19 13 -19 18 0 58 43 61 66 2 11 8 20 14 20 7 1 19 2 26 3
22 2 75 62 85 96 5 17 18 54 29 84 19 51 22 54 83 78 79 32 171 91 183 119 7
15 18 21 38 20 15 -1 28 -2 28 -3z m144 -24 c0 -17 -7 -26 -27 -33 -31 -11
-36 -8 -39 25 -2 17 2 24 14 24 9 0 20 4 24 8 14 13 28 1 28 -24z m-954 7 c0
-2 -7 -7 -16 -10 -8 -3 -12 -2 -9 4 6 10 25 14 25 6z m-40 -10 c0 -2 -13 -6
-30 -8 -16 -3 -30 -1 -30 4 0 4 14 8 30 8 17 0 30 -2 30 -4z m1740 -12 c0 -17
-22 -14 -28 4 -2 7 3 12 12 12 9 0 16 -7 16 -16z m-2270 -14 c0 -5 -4 -10 -10
-10 -5 0 -10 5 -10 10 0 6 5 10 10 10 6 0 10 -4 10 -10z m675 1 c3 -5 1 -12
-4 -15 -5 -3 -11 1 -15 9 -6 16 9 21 19 6z m1653 -19 c2 -7 -2 -10 -12 -6 -9
3 -16 11 -16 16 0 13 23 5 28 -10z m-1590 -30 c2 -12 -1 -22 -7 -22 -6 0 -11
7 -11 15 0 8 -5 15 -11 15 -5 0 -7 5 -4 11 10 16 30 5 33 -19z m1692 0 c-1
-23 -2 -24 -11 -9 -5 9 -19 17 -29 17 -34 0 -29 15 6 17 31 3 34 1 34 -25z
m-1660 -22 c0 -5 -4 -10 -10 -10 -5 0 -10 5 -10 10 0 6 5 10 10 10 6 0 10 -4
10 -10z m-390 -10 c0 -5 -5 -10 -11 -10 -5 0 -7 5 -4 10 3 6 8 10 11 10 2 0 4
-4 4 -10z m310 -35 c0 -17 -2 -17 -10 -5 -5 8 -10 24 -10 35 0 17 2 17 10 5 5
-8 10 -24 10 -35z m-95 24 c4 -6 13 -8 21 -5 19 7 18 -8 -1 -24 -8 -7 -15 -18
-15 -24 0 -6 -11 -12 -24 -12 -20 -2 -26 4 -28 25 -4 35 32 66 47 40z m-92
-40 c15 -21 27 -44 27 -49 0 -6 9 -10 20 -10 11 0 20 -4 20 -10 0 -5 -4 -10
-10 -10 -19 0 -10 -32 10 -37 20 -5 28 -23 10 -23 -5 0 -10 -7 -10 -15 0 -8 6
-15 14 -15 21 0 36 -23 26 -40 -8 -13 -12 -12 -24 5 -9 11 -16 23 -16 28 0 4
-9 7 -19 7 -24 0 -53 -40 -73 -100 -10 -31 -20 -44 -31 -42 -8 1 -18 -2 -22
-8 -9 -14 -38 -13 -33 2 3 7 15 15 29 18 28 7 92 115 83 140 -16 39 -16 50 -1
50 22 0 29 16 18 37 -5 10 -17 35 -27 56 -10 20 -22 37 -26 37 -5 0 -8 5 -8
10 0 20 15 9 43 -31z m1811 26 c3 -8 13 -15 23 -15 13 0 14 -3 5 -12 -7 -7
-12 -20 -12 -29 0 -12 -6 -16 -19 -12 -10 3 -22 0 -25 -6 -11 -17 -29 -13 -22
5 4 10 -1 25 -10 35 -16 18 -16 19 5 19 12 0 24 7 27 15 4 8 10 15 14 15 4 0
10 -7 14 -15z m-1954 -2 c0 -14 -49 -69 -50 -56 0 22 23 63 37 63 7 0 13 -3
13 -7z m-60 -83 c0 -5 -4 -10 -10 -10 -5 0 -10 5 -10 10 0 6 5 10 10 10 6 0
10 -4 10 -10z m1850 -15 c0 -8 5 -15 12 -15 6 0 9 -2 7 -5 -11 -10 -47 8 -42
21 7 19 23 18 23 -1z m-1415 -24 c3 -5 1 -12 -5 -16 -5 -3 -10 1 -10 9 0 18 6
21 15 7z m620 -21 c17 0 20 -16 4 -25 -6 -4 -8 -14 -5 -22 5 -11 2 -13 -10 -9
-8 3 -24 1 -35 -4 -16 -9 -19 -7 -19 15 0 14 -4 25 -10 25 -5 0 -10 5 -10 10
0 6 9 10 19 10 10 0 22 8 26 18 6 16 7 16 16 0 6 -10 17 -18 24 -18z m977 7
c22 -17 19 -67 -4 -67 -19 0 -58 29 -58 42 0 5 7 8 15 8 8 0 15 7 15 15 0 18
9 19 32 2z m-62 -132 c0 -30 -42 -31 -56 -1 -7 17 -5 23 11 32 25 14 45 0 45
-31z m-1700 -6 c0 -5 -7 -9 -15 -9 -15 0 -20 12 -9 23 8 8 24 -1 24 -14z
m1058 -2 c12 -15 4 -31 -20 -40 -19 -7 -31 26 -15 42 14 14 22 14 35 -2z m386
-3 c9 -3 16 -17 16 -30 0 -19 -5 -24 -24 -24 -27 0 -44 39 -23 52 15 9 12 9
31 2z m-155 -27 c13 -16 -4 -37 -31 -37 -21 0 -24 20 -6 38 15 15 23 15 37 -1z
m289 5 c17 -11 4 -42 -18 -42 -20 0 -34 37 -16 44 17 7 20 6 34 -2z m-968 -28
c0 -8 -4 -14 -10 -14 -5 0 -10 9 -10 21 0 11 5 17 10 14 6 -3 10 -13 10 -21z
m605 -44 c14 -5 25 -14 25 -19 0 -11 -38 -3 -46 10 -3 5 -14 9 -24 9 -10 0
-22 5 -26 11 -7 13 21 8 71 -11z m250 -54 c19 -7 19 -8 2 -18 -13 -7 -17 -17
-13 -33 4 -16 1 -25 -11 -29 -9 -4 -18 -4 -21 -1 -3 3 0 5 6 5 7 0 12 7 12 16
0 10 -6 13 -19 9 -14 -4 -20 0 -24 21 -6 32 22 68 38 49 6 -6 19 -15 30 -19z
m-297 -2 c25 -21 18 -67 -8 -59 -10 3 -21 1 -25 -5 -10 -16 -28 -12 -21 6 4 9
1 23 -5 31 -10 11 -8 15 9 20 12 3 22 9 22 14 0 13 7 11 28 -7z m412 -13 c0
-9 -33 -21 -57 -21 -25 0 -13 19 15 23 15 2 30 5 35 6 4 0 7 -3 7 -8z m-1650
-11 c0 -5 -4 -10 -10 -10 -5 0 -10 5 -10 10 0 6 5 10 10 10 6 0 10 -4 10 -10z
m720 -5 c0 -8 -9 -15 -20 -15 -13 0 -18 5 -14 15 4 8 12 15 20 15 8 0 14 -7
14 -15z m790 -120 c0 -8 -9 -15 -20 -15 -11 0 -20 7 -20 15 0 8 9 15 20 15 11
0 20 -7 20 -15z m-152 -114 c12 -30 20 -56 17 -59 -3 -3 -7 -3 -8 -1 -8 9 -67
165 -67 174 1 12 28 -41 58 -114z m-893 49 c-3 -5 -13 -10 -21 -10 -8 0 -12 5
-9 10 3 6 13 10 21 10 8 0 12 -4 9 -10z m485 -115 c0 -62 -18 -74 -40 -27
l-13 27 -6 -30 c-6 -31 -19 -35 -55 -20 -11 5 -26 4 -37 -3 -27 -17 -38 -15
-60 11 l-18 22 -1 -22 c0 -13 -4 -23 -10 -23 -5 0 -10 25 -10 56 l0 55 33 -3
c30 -3 32 -5 31 -40 -2 -50 12 -48 27 2 7 22 17 40 24 40 6 0 21 -19 32 -42
l22 -43 0 43 c1 49 21 57 42 15 l13 -28 4 33 c6 53 22 36 22 -23z m84 49 c29
-11 19 -34 -13 -28 -34 7 -51 -20 -27 -44 12 -13 18 -13 31 -2 8 7 18 10 22 6
3 -3 14 12 24 35 10 22 23 38 28 35 15 -9 45 -96 36 -104 -4 -4 -10 -1 -12 6
-6 15 -39 16 -48 1 -4 -6 -14 -8 -22 -5 -9 4 -17 -1 -20 -13 -7 -26 -33 -36
-33 -13 0 9 -9 23 -20 30 -24 15 -27 64 -4 86 16 17 33 20 58 10z m-533 -14
c27 -15 24 -32 -6 -24 -34 8 -32 -1 4 -19 19 -9 28 -10 28 -3 -1 46 4 56 27
56 14 0 32 -7 40 -16 15 -14 16 -14 16 0 0 12 10 16 40 16 22 0 40 -4 40 -10
0 -9 -21 -15 -42 -11 -5 0 -8 -3 -8 -8 0 -5 9 -11 20 -13 28 -4 27 -22 -2 -29
-23 -6 -22 -6 5 -14 40 -11 33 -27 -10 -23 -30 2 -39 7 -41 25 -3 20 -6 21
-25 10 -12 -7 -28 -19 -35 -27 -11 -12 -14 -12 -19 -2 -4 10 -9 9 -24 -4 -16
-14 -24 -15 -44 -6 -36 16 -31 33 7 25 22 -4 29 -3 24 5 -4 7 -14 12 -22 12
-7 0 -19 9 -26 20 -13 20 -58 28 -58 10 0 -5 9 -10 20 -10 11 0 20 -4 20 -10
0 -5 -9 -10 -20 -10 -27 0 -25 -18 3 -22 33 -5 22 -23 -15 -23 -33 0 -33 0
-36 53 l-3 54 45 -3 c25 -2 48 0 52 4 10 10 22 9 45 -3z m779 -70 c0 -19 -28
-28 -43 -13 -5 5 18 23 41 32 1 1 2 -8 2 -19z m-760 -120 c0 -5 -7 -10 -16
-10 -8 0 -12 5 -9 10 3 6 10 10 16 10 5 0 9 -4 9 -10z"/>
<path d="M2701 2204 c-23 -12 -23 -12 -3 -23 15 -8 23 -7 33 5 18 21 -1 33
-30 18z"/>
<path d="M2755 2210 c-7 -11 2 -30 13 -30 4 0 8 9 8 20 0 21 -11 26 -21 10z"/>
<path d="M2932 2178 c-8 -10 -10 -26 -6 -42 7 -29 -10 -37 -20 -9 -6 15 -8 14
-20 -2 -16 -22 -5 -38 32 -49 28 -9 34 6 30 69 -3 41 -5 46 -16 33z"/>
<path d="M2650 2140 c0 -5 7 -10 15 -10 8 0 15 5 15 10 0 6 -7 10 -15 10 -8 0
-15 -4 -15 -10z"/>
<path d="M2789 2138 c0 -2 -2 -13 -3 -26 -3 -30 10 -37 30 -18 14 14 14 18 0
31 -13 14 -25 19 -27 13z"/>
<path d="M2630 2100 c0 -5 5 -10 10 -10 6 0 10 5 10 10 0 6 -4 10 -10 10 -5 0
-10 -4 -10 -10z"/>
<path d="M2660 2100 c0 -5 7 -10 16 -10 8 0 12 5 9 10 -3 6 -10 10 -16 10 -5
0 -9 -4 -9 -10z"/>
<path d="M2735 2100 c-3 -5 1 -10 10 -10 9 0 13 5 10 10 -3 6 -8 10 -10 10 -2
0 -7 -4 -10 -10z"/>
<path d="M2839 2048 c-1 -7 -1 -19 0 -25 1 -7 -5 -13 -14 -13 -8 0 -15 -7 -15
-15 0 -8 6 -14 13 -12 7 1 12 -10 13 -28 0 -17 3 -36 7 -42 4 -6 2 -13 -5 -15
-8 -3 -3 -14 14 -31 24 -24 29 -25 42 -12 8 9 22 12 32 8 10 -4 22 0 30 11 7
10 17 15 22 12 17 -10 22 24 8 52 -7 15 -16 43 -20 63 -9 51 -27 64 -68 50
-22 -8 -34 -8 -36 -1 -5 14 -22 13 -23 -2z m36 -117 c3 -5 1 -12 -5 -16 -5 -3
-10 1 -10 9 0 18 6 21 15 7z"/>
<path d="M2710 2031 c0 -11 -6 -21 -12 -24 -8 -2 -9 -8 -4 -13 5 -5 11 -4 13
4 3 6 11 12 18 12 8 0 11 7 8 20 -7 25 -23 26 -23 1z"/>
<path d="M2655 2029 c-11 -17 1 -21 15 -4 8 9 8 15 2 15 -6 0 -14 -5 -17 -11z"/>
<path d="M2587 2024 c-4 -4 -7 -18 -7 -31 0 -26 27 -32 37 -7 6 17 -19 49 -30
38z"/>
<path d="M2697 1963 c-13 -12 -7 -37 16 -61 21 -22 21 -24 5 -36 -21 -16 -23
-30 -5 -45 11 -8 17 -5 27 14 l13 25 24 -22 c23 -21 24 -21 37 -3 26 36 -12
89 -56 80 -26 -6 -28 -4 -28 24 0 29 -17 41 -33 24z"/>
<path d="M2770 1963 c0 -14 19 -38 25 -32 8 8 -5 39 -16 39 -5 0 -9 -3 -9 -7z"/>
<path d="M2610 1925 c0 -8 5 -15 10 -15 6 0 10 7 10 15 0 8 -4 15 -10 15 -5 0
-10 -7 -10 -15z"/>
<path d="M2661 1924 c0 -11 3 -14 6 -6 3 7 2 16 -1 19 -3 4 -6 -2 -5 -13z"/>
<path d="M3211 1896 c-13 -15 -4 -26 21 -26 21 0 24 25 4 33 -8 3 -19 0 -25
-7z"/>
<path d="M2671 1854 c0 -11 3 -14 6 -6 3 7 2 16 -1 19 -3 4 -6 -2 -5 -13z"/>
<path d="M3240 1705 c0 -16 16 -20 24 -6 3 5 -1 11 -9 15 -9 3 -15 0 -15 -9z"/>
<path d="M3070 1700 c0 -5 7 -10 15 -10 8 0 15 5 15 10 0 6 -7 10 -15 10 -8 0
-15 -4 -15 -10z"/>
<path d="M3724 3385 c1 -28 8 -31 26 -10 13 16 6 35 -15 35 -7 0 -12 -10 -11
-25z"/>
<path d="M3085 3390 c-7 -11 2 -16 50 -25 47 -8 45 -3 -7 18 -21 9 -40 12 -43
7z"/>
<path d="M3517 3333 c-9 -26 -17 -55 -17 -63 1 -22 40 27 40 50 0 26 21 39 48
29 13 -5 22 -17 22 -30 0 -19 -4 -21 -32 -15 -30 6 -30 5 -15 -12 10 -10 17
-31 17 -46 0 -16 4 -25 10 -21 6 3 10 17 10 29 0 13 7 29 15 36 33 28 6 74
-51 86 -28 5 -30 3 -47 -43z"/>
<path d="M3710 3300 c-46 -11 -69 -99 -31 -120 46 -24 102 3 101 50 -1 8 -7 3
-16 -12 -15 -28 -54 -45 -73 -33 -31 19 1 105 39 105 7 0 22 -7 32 -17 15 -14
18 -14 18 -1 0 20 -39 36 -70 28z"/>
<path d="M3831 3209 c-26 -24 -26 -87 -1 -99 8 -4 25 -12 37 -18 20 -10 25 -9
39 13 19 29 18 30 -16 39 -14 3 -19 3 -12 0 19 -9 14 -34 -7 -34 -46 0 -59 51
-23 93 20 23 28 22 59 -9 28 -28 35 -28 27 3 -10 37 -69 44 -103 12z"/>
<path d="M3994 3148 c-23 -37 -53 -98 -48 -98 3 0 13 9 22 20 16 19 18 20 40
4 19 -13 23 -23 18 -45 -3 -17 -1 -29 5 -29 5 0 12 14 16 30 3 17 10 30 15 30
12 0 27 42 20 58 -5 13 -53 42 -71 42 -5 0 -13 -6 -17 -12z m66 -23 c20 -25 4
-48 -28 -40 -38 9 -48 21 -32 40 16 19 44 19 60 0z"/>
<path d="M4118 3023 c-26 -42 -33 -60 -24 -68 21 -19 65 -45 78 -45 12 1 2 11
-47 46 -18 13 -18 15 -3 30 15 15 18 15 39 0 38 -26 47 -18 12 12 -25 20 -30
31 -23 42 8 13 14 13 45 -4 19 -11 37 -17 40 -14 5 4 -68 58 -78 58 -2 0 -20
-26 -39 -57z"/>
<path d="M4292 2958 c-17 -17 -15 -48 4 -69 9 -10 14 -25 11 -33 -8 -20 -47
-8 -57 18 -9 21 -9 21 -9 -1 -1 -32 41 -58 68 -43 26 14 27 40 1 70 -11 13
-20 29 -20 37 0 24 39 14 54 -14 l15 -28 1 26 c0 18 -8 29 -25 37 -31 15 -28
15 -43 0z"/>
<path d="M4410 2855 c-16 -19 -6 -57 20 -73 23 -14 27 -1 5 18 -8 7 -15 21
-15 31 0 26 40 25 47 -1 3 -11 9 -17 14 -15 14 9 0 32 -27 44 -31 14 -29 14
-44 -4z"/>
<path d="M6060 2624 c-179 -124 -372 -258 -429 -298 -58 -39 -116 -81 -129
-93 -14 -13 -29 -23 -34 -23 -4 0 -50 -30 -102 -67 -97 -70 -379 -266 -420
-293 -48 -31 -141 -94 -146 -100 -3 -3 -18 -14 -35 -26 -16 -11 -93 -65 -170
-119 -77 -55 -171 -121 -210 -148 -38 -27 -110 -78 -160 -113 -49 -35 -136
-97 -193 -137 -148 -104 -152 -107 -340 -251 l-25 -20 5 25 c3 13 17 63 31
110 14 48 27 117 29 155 l3 68 53 21 c53 20 63 37 23 43 -13 2 -37 -8 -57 -23
-28 -22 -38 -24 -50 -14 -12 10 -17 9 -28 -6 -8 -11 -31 -19 -63 -22 l-50 -5
-7 -51 c-3 -31 -1 -54 5 -57 6 -5 6 -15 0 -32 -5 -14 -7 -35 -4 -46 4 -18 -1
-21 -41 -27 -44 -7 -65 -5 -128 11 -46 11 -32 -14 15 -28 23 -6 45 -17 49 -23
4 -5 8 -7 8 -2 0 4 18 -5 40 -19 61 -41 95 -153 58 -190 -12 -13 -20 -14 -36
-5 -30 16 -42 14 -42 -7 0 -13 -13 -23 -40 -32 -22 -7 -40 -16 -40 -19 0 -3
15 -17 32 -31 50 -38 77 -69 80 -93 4 -28 21 -31 49 -9 l23 19 -28 25 c-24 20
-28 30 -22 52 15 59 72 38 63 -24 l-4 -35 46 0 46 0 -2 -48 c-2 -38 2 -55 21
-80 35 -46 50 -110 36 -153 -11 -32 -19 -38 -47 -35 -15 2 -17 -15 -4 -23 4
-3 9 -29 10 -57 0 -28 6 -58 12 -66 9 -10 9 -20 0 -39 -6 -14 -9 -29 -6 -34 3
-4 -2 -13 -10 -20 -9 -7 -13 -22 -10 -36 3 -13 7 -35 10 -49 l5 -25 1350 0
1350 0 0 1425 c0 784 -3 1425 -8 1425 -4 0 -154 -102 -332 -226z m-2409 -1525
c8 -15 8 -24 0 -32 -13 -13 -18 -9 -26 26 -9 33 9 37 26 6z m884 -209 c0 -7
-6 -15 -12 -17 -8 -3 -13 4 -13 17 0 13 5 20 13 18 6 -3 12 -11 12 -18z m145
-81 c0 -24 -23 -21 -28 4 -2 10 3 17 12 17 10 0 16 -9 16 -21z m1160 -109 c0
-5 -4 -10 -10 -10 -5 0 -10 5 -10 10 0 6 5 10 10 10 6 0 10 -4 10 -10z m-175
-39 c3 -5 1 -12 -5 -16 -5 -3 -10 1 -10 9 0 18 6 21 15 7z m-175 -316 c0 -8
-7 -15 -15 -15 -8 0 -15 7 -15 15 0 8 7 15 15 15 8 0 15 -7 15 -15z"/>
<path d="M4360 2783 c0 -12 7 -29 16 -38 20 -19 66 -16 72 5 4 12 2 13 -9 3
-23 -23 -49 -15 -64 20 -12 26 -14 28 -15 10z"/>
<path d="M4533 2738 c-29 -14 -45 -61 -33 -93 8 -20 17 -25 43 -25 39 0 64 23
73 67 5 25 2 34 -17 47 -27 18 -35 19 -66 4z m57 -28 c13 -25 -2 -58 -33 -69
-43 -17 -64 34 -30 71 21 24 50 23 63 -2z"/>
<path d="M2386 2584 c-9 -22 3 -32 14 -14 12 19 12 30 1 30 -5 0 -12 -7 -15
-16z"/>
<path d="M4557 2342 c-30 -33 -21 -83 22 -132 29 -33 43 -42 51 -34 8 8 6 19
-7 42 -10 18 -21 32 -25 32 -11 0 -10 52 2 70 5 9 5 19 -2 27 -14 17 -22 16
-41 -5z"/>
<path d="M4030 1483 c-20 -8 -85 -72 -78 -78 7 -8 69 37 86 63 8 12 13 22 11
21 -2 0 -11 -3 -19 -6z"/>
<path d="M2900 1093 c0 -22 2 -25 10 -13 13 20 13 40 0 40 -5 0 -10 -12 -10
-27z"/>
<path d="M3240 1065 c7 -8 17 -15 22 -15 6 0 5 7 -2 15 -7 8 -17 15 -22 15 -6
0 -5 -7 2 -15z"/>
<path d="M3260 846 c0 -9 5 -16 10 -16 6 0 10 4 10 9 0 6 -4 13 -10 16 -5 3
-10 -1 -10 -9z"/>
<path d="M3267 793 c-15 -14 -5 -32 29 -54 33 -20 37 -20 52 -5 14 14 14 16 1
16 -9 0 -26 11 -39 25 -25 26 -32 29 -43 18z"/>
<path d="M3347 614 c-11 -12 -8 -24 7 -24 7 0 19 -7 27 -16 7 -9 21 -13 35
-10 18 5 23 1 28 -26 3 -17 4 -33 1 -36 -8 -8 -35 19 -35 35 0 8 -6 13 -12 10
-7 -2 -12 -14 -10 -25 2 -13 -3 -25 -12 -28 -20 -8 -20 -28 0 -48 18 -19 60
-21 67 -3 7 19 41 -6 45 -34 5 -34 18 -45 37 -29 25 21 18 53 -20 83 -37 29
-42 50 -23 92 14 31 12 33 -43 44 -24 5 -53 12 -64 16 -11 3 -24 3 -28 -1z"/>
<path d="M3211 482 c-14 -2 -35 -11 -49 -20 -20 -13 -21 -17 -8 -24 11 -6 26
-4 44 5 17 8 38 11 55 6 15 -4 27 -3 27 2 0 5 9 9 20 9 11 0 20 6 20 13 0 12
-58 17 -109 9z"/>
<path d="M3130 419 c0 -5 5 -7 10 -4 6 3 10 8 10 11 0 2 -4 4 -10 4 -5 0 -10
-5 -10 -11z"/>
<path d="M3127 263 c-15 -8 -34 -27 -42 -42 -8 -16 -21 -31 -30 -34 -8 -4 -15
-11 -15 -17 0 -7 6 -8 19 0 14 7 22 7 26 0 4 -6 10 -8 15 -5 4 3 6 -5 3 -16
-4 -16 -2 -20 8 -17 7 2 16 15 19 29 3 13 11 25 18 25 7 1 15 3 20 4 4 1 11 2
15 1 4 -1 10 5 13 13 3 9 12 12 21 9 13 -5 15 -2 10 18 -4 13 -7 30 -7 37 0
16 -58 14 -93 -5z m10 -59 c-3 -3 -12 -4 -19 -1 -8 3 -5 6 6 6 11 1 17 -2 13
-5z"/>
<path d="M3275 220 c3 -5 13 -10 21 -10 8 0 12 5 9 10 -3 6 -13 10 -21 10 -8
0 -12 -4 -9 -10z"/>
<path d="M3188 113 c-20 -5 -24 -28 -8 -38 6 -3 13 1 16 9 3 9 9 14 14 11 4
-2 16 2 26 10 18 14 18 14 -6 14 -14 -1 -33 -3 -42 -6z"/>
<path d="M3287 113 c-4 -3 -7 -19 -7 -34 0 -21 -7 -32 -30 -44 -37 -19 -70
-19 -70 0 0 22 -12 18 -33 -10 l-18 -25 102 0 c98 0 101 1 86 18 -19 21 -22
57 -7 67 15 9 12 35 -3 35 -8 0 -17 -3 -20 -7z"/>
<path d="M2968 33 c-21 -8 -38 -18 -38 -22 0 -4 25 -8 55 -9 45 -1 56 2 65 18
6 11 9 20 8 21 -29 7 -60 4 -90 -8z"/>
</g>
</svg>
